Coordinates
nRows=119
nColumns=2
inDegrees=yes
endheader
time	ankle_angle_r	
2.79133	 -5.215577	
2.8629	 -5.162126	
2.93448	 -5.185520	
3.00605	 -5.200715	
3.07762	 -5.157763	
3.14919	 -5.194214	
3.22077	 -5.294393	
3.29234	 -5.295092	
3.36391	 -5.254740	
3.43548	 -5.264700	
3.50706	 -5.290541	
3.57863	 -5.281304	
3.6502	 -5.253380	
3.72177	 -5.286011	
3.79335	 -5.312317	
3.86492	 -5.272781	
3.93649	 -5.254352	
4.00806	 -5.286313	
4.07964	 -5.307714	
4.15121	 -5.264903	
4.22278	 -5.228731	
4.29435	 -5.226724	
4.36593	 -5.211989	
4.4375	 -5.216573	
4.50907	 -5.194269	
4.58065	 -5.171239	
4.65222	 -5.211153	
4.72379	 -5.217645	
4.79536	 -5.227383	
4.86694	 -5.296911	
4.93851	 -5.302540	
5.01008	 -5.244976	
5.08165	 -5.273594	
5.15323	 -5.293151	
5.2248	 -5.172076	
5.29637	 -5.104945	
5.36794	 -5.150995	
5.43952	 -5.162986	
5.51109	 -5.156274	
5.58266	 -5.194316	
5.65423	 -5.256380	
5.72581	 -5.291432	
5.79738	 -5.267832	
5.86895	 -5.244482	
5.94052	 -5.289961	
6.0121	 -5.319280	
6.08367	 -5.282577	
6.15524	 -5.229631	
6.22681	 -5.189682	
6.29839	 -5.182589	
6.36996	 -5.149832	
6.44153	 -5.098703	
6.5131	 -5.136144	
6.58468	 -5.202258	
6.65625	 -5.143090	
6.72782	 -5.084951	
6.7994	 -5.183107	
6.87097	 -5.231388	
6.94254	 -5.176561	
7.01411	 -5.207411	
7.08569	 -5.296194	
7.15726	 -5.302263	
7.22883	 -5.257501	
7.3004	 -5.279827	
7.37198	 -5.309887	
7.44355	 -5.287805	
7.51512	 -5.268352	
7.58669	 -5.275833	
7.65827	 -5.295584	
7.72984	 -5.279412	
7.80141	 -5.262087	
7.87298	 -5.283581	
7.94456	 -5.294913	
8.01613	 -5.272138	
8.0877	 -5.245530	
8.15927	 -5.248496	
8.23085	 -5.202578	
8.30242	 -5.110431	
8.37399	 -5.107937	
8.44556	 -5.163594	
8.51714	 -5.172247	
8.58871	 -5.161589	
8.66028	 -5.150284	
8.73185	 -5.127397	
8.80343	 -5.142162	
8.875	 -5.108741	
8.94657	 -5.109979	
9.01815	 -5.249118	
9.08972	 -5.214287	
9.16129	 -5.115635	
9.23286	 -5.201857	
9.30444	 -5.221324	
9.37601	 -5.132257	
9.44758	 -5.084035	
9.51915	 -5.115454	
9.59073	 -5.184550	
9.6623	 -5.164421	
9.73387	 -5.082266	
9.80544	 -5.135859	
9.87702	 -5.272087	
9.94859	 -5.275303	
10.0202	 -5.283995	
10.0917	 -5.396346	
10.1633	 -5.433771	
10.2349	 -5.407445	
10.3065	 -5.401197	
10.378	 -5.383463	
10.4496	 -5.333558	
10.5212	 -5.280992	
10.5927	 -5.260325	
10.6643	 -5.279774	
10.7359	 -5.293286	
10.8075	 -5.259602	
10.879	 -5.260307	
10.9506	 -5.297582	
11.0222	 -5.285058	
11.0937	 -5.248022	
11.1653	 -5.215422	
11.2369	 -5.190700	
